<?xml version="1.0" encoding="utf-8"?>
<!-- Generator: Adobe Illustrator 21.1.0, SVG Export Plug-In . SVG Version: 6.00 Build 0)  -->
<svg version="1.2" baseProfile="tiny" id="Ebene_1" xmlns="http://www.w3.org/2000/svg" xmlns:xlink="http://www.w3.org/1999/xlink"
	 x="0px" y="0px" viewBox="0 0 335.1 80.7" xml:space="preserve">
<g>
	<path fill="#FF6633" d="M324.9,80.2H10.2c-5.3,0-9.7-4.4-9.7-9.7V10.2c0-5.3,4.4-9.7,9.7-9.7h314.7c5.3,0,9.7,4.4,9.7,9.7v60.3
		C334.6,75.8,330.3,80.2,324.9,80.2z"/>
	<path fill="#FF6633" d="M324.9,80.7H10.2C4.6,80.7,0,76.1,0,70.5V10.2C0,4.6,4.6,0,10.2,0h314.7c5.6,0,10.2,4.6,10.2,10.2v60.3
		C335.1,76.1,330.6,80.7,324.9,80.7z M10.2,1C5.1,1,1,5.1,1,10.2v60.3c0,5.1,4.1,9.2,9.2,9.2h314.7c5.1,0,9.2-4.1,9.2-9.2V10.2
		c0-5.1-4.1-9.2-9.2-9.2H10.2z"/>
</g>
<g>
	<path fill="#FFFFFF" d="M325.4,80.2H208.2V0.5h117.1c5.1,0,9.3,4.6,9.3,10.2V70C334.6,75.6,330.5,80.2,325.4,80.2z"/>
	<path fill="#FF6633" d="M325.4,80.7H207.7V0h117.6c5.4,0,9.8,4.8,9.8,10.7V70C335.1,75.9,330.8,80.7,325.4,80.7z M208.7,79.7h116.6
		c4.8,0,8.8-4.3,8.8-9.7V10.7c0-5.3-3.9-9.7-8.8-9.7H208.7V79.7z"/>
</g>
<g>
	<path fill="#FFFFFF" d="M34.7,55.7V22.6h9c4,0,6.9,0.7,8.6,2s2.6,3.6,2.6,6.7c0,3.5-1.2,6.3-3.6,8.3c-2.4,2-5.7,3-9.9,3h-2.1v13.2
		H34.7z M39.3,39h1.9c2.8,0,4.9-0.6,6.5-1.9S50,34,50,31.6c0-2-0.6-3.4-1.8-4.3c-1.2-0.9-3.2-1.3-6-1.3h-2.9V39z"/>
	<path fill="#FFFFFF" d="M78,55c-3,0.9-5.5,1.3-7.6,1.3c-3.6,0-6.5-1.2-8.8-3.6s-3.4-5.5-3.4-9.3c0-3.7,1-6.7,3-9.1
		c2-2.4,4.5-3.5,7.6-3.5c2.9,0,5.2,1,6.8,3.1c1.6,2.1,2.4,5.1,2.4,8.9l0,1.4H62.7c0.6,5.8,3.5,8.7,8.5,8.7c1.8,0,4.1-0.5,6.8-1.5V55
		z M62.9,41h10.7c0-4.5-1.7-6.8-5.1-6.8C65.2,34.2,63.3,36.4,62.9,41z"/>
	<path fill="#FFFFFF" d="M93,56.3c-2.2,0-4-0.6-5.2-1.9s-1.9-3.1-1.9-5.4V34.7h-3v-3.3h3V27l4.4-0.4v4.8h6.4v3.3h-6.4v13.5
		c0,3.2,1.4,4.8,4.1,4.8c0.6,0,1.3-0.1,2.1-0.3v3C95.2,56.1,94,56.3,93,56.3z"/>
	<path fill="#FFFFFF" d="M102.8,27v-4.4h4.4V27H102.8z M102.8,55.7V31.4h4.4v24.3H102.8z"/>
	<path fill="#FFFFFF" d="M123.4,56.3c-2.2,0-4-0.6-5.2-1.9s-1.9-3.1-1.9-5.4V34.7h-3v-3.3h3V27l4.4-0.4v4.8h6.4v3.3h-6.4v13.5
		c0,3.2,1.4,4.8,4.1,4.8c0.6,0,1.3-0.1,2.1-0.3v3C125.6,56.1,124.4,56.3,123.4,56.3z"/>
	<path fill="#FFFFFF" d="M133.2,27v-4.4h4.4V27H133.2z M133.2,55.7V31.4h4.4v24.3H133.2z"/>
	<path fill="#FFFFFF" d="M156,56.3c-3.5,0-6.3-1.2-8.3-3.5c-2.1-2.3-3.1-5.4-3.1-9.3c0-3.9,1-7,3.1-9.3c2.1-2.3,4.9-3.4,8.5-3.4
		c3.6,0,6.4,1.1,8.5,3.4c2.1,2.3,3.1,5.4,3.1,9.2c0,4-1,7.1-3.1,9.4C162.5,55.2,159.7,56.3,156,56.3z M156.1,53c4.7,0,7-3.1,7-9.4
		c0-6.2-2.3-9.3-6.9-9.3c-4.6,0-6.9,3.1-6.9,9.4C149.3,49.9,151.5,53,156.1,53z"/>
	<path fill="#FFFFFF" d="M174.7,55.7V31.4h4.4V36c2.3-3.4,5.2-5.1,8.6-5.1c2.1,0,3.8,0.7,5,2c1.3,1.3,1.9,3.1,1.9,5.4v17.5h-4.4v-16
		c0-1.8-0.3-3.1-0.8-3.9c-0.5-0.8-1.4-1.2-2.6-1.2c-2.7,0-5.2,1.8-7.6,5.3v15.7H174.7z"/>
	<path fill="#FF6633" d="M217.5,55.7V22.6h9c4,0,6.9,0.7,8.6,2s2.6,3.6,2.6,6.7c0,3.5-1.2,6.3-3.6,8.3c-2.4,2-5.7,3-9.9,3h-2.1v13.2
		H217.5z M222.2,39h1.9c2.8,0,4.9-0.6,6.5-1.9s2.3-3.1,2.3-5.4c0-2-0.6-3.4-1.8-4.3c-1.2-0.9-3.2-1.3-6-1.3h-2.9V39z"/>
	<path fill="#FF6633" d="M243,55.7V20.4h4.4v35.4H243z"/>
	<path fill="#FF6633" d="M271.4,55.7v-4.6c-2.3,3.4-5.2,5.1-8.5,5.1c-2.1,0-3.8-0.7-5.1-2c-1.3-1.3-1.9-3.1-1.9-5.4V31.4h4.4v16
		c0,1.8,0.3,3.1,0.8,3.9c0.5,0.8,1.4,1.2,2.7,1.2c2.7,0,5.2-1.8,7.6-5.3V31.4h4.4v24.3H271.4z"/>
	<path fill="#FF6633" d="M291.1,56.3c-2,0-4.5-0.5-7.3-1.4v-4.1c2.9,1.4,5.4,2.1,7.5,2.1c1.3,0,2.3-0.3,3.2-1s1.3-1.5,1.3-2.6
		c0-1.5-1.2-2.8-3.5-3.7l-2.6-1.1c-3.8-1.6-5.7-3.9-5.7-6.8c0-2.1,0.8-3.8,2.2-5c1.5-1.2,3.6-1.8,6.2-1.8c1.4,0,3,0.2,5,0.6l0.9,0.2
		v3.7c-2.5-0.7-4.4-1.1-5.9-1.1c-2.8,0-4.3,1-4.3,3.1c0,1.3,1.1,2.4,3.2,3.4l2.1,0.9c2.4,1,4.1,2.1,5.1,3.2c1,1.1,1.5,2.5,1.5,4.2
		c0,2.1-0.8,3.9-2.5,5.3C295.9,55.6,293.8,56.3,291.1,56.3z"/>
</g>
</svg>
