<?xml version="1.0" encoding="UTF-8" standalone="no"?>
<svg
   xmlns:dc="http://purl.org/dc/elements/1.1/"
   xmlns:cc="http://creativecommons.org/ns#"
   xmlns:rdf="http://www.w3.org/1999/02/22-rdf-syntax-ns#"
   xmlns:svg="http://www.w3.org/2000/svg"
   xmlns="http://www.w3.org/2000/svg"
   xmlns:sodipodi="http://sodipodi.sourceforge.net/DTD/sodipodi-0.dtd"
   xmlns:inkscape="http://www.inkscape.org/namespaces/inkscape"
   x="0px"
   y="0px"
   viewBox="0 0 61.9 61.7"
   id="svg3510"
   version="1.1"
   inkscape:version="0.91 r13725"
   sodipodi:docname="logo-aw.svg"
   width="61.900002"
   height="61.700001">
  <metadata
     id="metadata3524">
    <rdf:RDF>
      <cc:Work
         rdf:about="">
        <dc:format>image/svg+xml</dc:format>
        <dc:type
           rdf:resource="http://purl.org/dc/dcmitype/StillImage" />
        <dc:title></dc:title>
      </cc:Work>
    </rdf:RDF>
  </metadata>
  <defs
     id="defs3522" />
  <sodipodi:namedview
     pagecolor="#f3efe6"
     bordercolor="#666666"
     borderopacity="1"
     objecttolerance="10"
     gridtolerance="10"
     guidetolerance="10"
     inkscape:pageopacity="0"
     inkscape:pageshadow="2"
     inkscape:window-width="771"
     inkscape:window-height="480"
     id="namedview3520"
     showgrid="false"
     fit-margin-top="0.3"
     fit-margin-left="0.3"
     fit-margin-right="0.3"
     fit-margin-bottom="0.3"
     inkscape:zoom="1.5203696"
     inkscape:cx="43.82083"
     inkscape:cy="21.121296"
     inkscape:window-x="0"
     inkscape:window-y="0"
     inkscape:window-maximized="0"
     inkscape:current-layer="svg3510" />
  <path
     d="m 52.6,0.3 -43.3,0 c -5,0 -9,4.1 -9,9 l 0,43.1 c 0,5 4.1,9 9,9 l 43.3,0 c 5,0 9,-3.9 9,-8.9 l 0,-43.2 c 0,-4.9 -4,-9 -9,-9 z M 57,51.4 c 0,3.1 -2.4,5.5 -5.5,5.5 l -41.1,0 c -3.1,0 -5.5,-2.4 -5.5,-5.5 l 0,-41 c 0,-3.1 2.4,-5.5 5.5,-5.5 l 41.1,0 c 3.1,0 5.5,2.4 5.5,5.5 l 0,41 z M 43.3,19.2 c -2.8,-3 -6.5,-4.9 -10.4,-5.3 l 0.3,-5.4 c 5.4,0.6 10.4,3 14.1,6.9 3.8,4 6,9 6.3,14.6 l -5.5,0 c -0.3,-3.9 -2,-7.8 -4.8,-10.8 l 0,0 z M 30.6,8.3 30.4,13.8 c -4.5,0 -8.7,1.8 -11.9,4.9 l -3.7,-4 c 4.2,-4.2 9.8,-6.4 15.8,-6.4 0.1,0 0.1,0 0,0 z m 12.1,35.6 c 1.4,-1.2 2.5,-2.8 3.3,-4.3 l 5.3,1.7 c -1.2,2.4 -2.9,4.7 -4.9,6.6 l -3.7,-4 0,0 z M 52.2,39 47,37.3 c 0.7,-1.5 1,-3.2 1.1,-5 l 5.5,0 C 53.5,34.7 53.1,37 52.2,39 Z m -13.6,-12.5 4,-3.9 c 1.7,2.2 2.6,4.7 2.9,7.5 l -5.5,0 c -0.3,-1.3 -0.7,-2.5 -1.4,-3.6 l 0,0 z m 1.2,6.1 5.5,0 c -0.2,3.6 -1.9,7.1 -4.5,9.6 l -3.7,-4 c 1.5,-1.5 2.5,-3.5 2.7,-5.6 z M 20.3,20.7 c 2.6,-2.6 6.2,-4.1 10,-4.1 L 30,22.1 c -2.3,0.1 -4.3,1 -6,2.5 l -3.7,-3.9 0,0 z m 16.8,3.9 c -1.3,-1.2 -3,-2.1 -4.7,-2.4 l 0.3,-5.5 c 3.1,0.4 6,1.9 8.3,4.1 l -3.9,3.8 z m -6.5,6.7 -0.2,0 0.1,-0.1 0,0.1 z"
     id="path3518"
     inkscape:connector-curvature="0"
     style="fill:#ff6c36" />
</svg>
