<?xml version="1.0" encoding="utf-8"?>
<!-- Generator: Adobe Illustrator 21.1.0, SVG Export Plug-In . SVG Version: 6.00 Build 0)  -->
<svg version="1.2" baseProfile="tiny" id="Ebene_1" xmlns="http://www.w3.org/2000/svg" xmlns:xlink="http://www.w3.org/1999/xlink"
	 x="0px" y="0px" viewBox="0 0 129.4 40.1" xml:space="preserve">
<path d="M0.8,2.5c0-0.2,0.1-0.3,0.2-0.4C1.1,2,1.2,1.9,1.3,1.9c0.2,0,0.3,0.1,0.4,0.2c0.1,0.1,0.2,0.2,0.2,0.4v4.7l5.6-5.1
	C7.6,2,7.7,1.9,7.9,1.9C8,1.9,8.2,2,8.3,2.1c0.1,0.1,0.2,0.2,0.2,0.4c0,0.2-0.1,0.3-0.2,0.4L4.4,6.4l3.8,6.1
	c0.1,0.1,0.1,0.2,0.1,0.3c0,0.1-0.1,0.3-0.2,0.4c-0.1,0.1-0.2,0.2-0.4,0.2c-0.2,0-0.4-0.1-0.5-0.3L3.6,7.1L1.9,8.7v4.1
	c0,0.2-0.1,0.3-0.2,0.4c-0.1,0.1-0.2,0.2-0.4,0.2c-0.2,0-0.3-0.1-0.4-0.2c-0.1-0.1-0.2-0.2-0.2-0.4V2.5z M9.8,12.6
	c0,0.1-0.1,0.1-0.1,0.2c0,0.1,0.1,0.3,0.2,0.4c0.1,0.1,0.2,0.2,0.4,0.2c0.1,0,0.2,0,0.3-0.1c0.1-0.1,0.2-0.1,0.2-0.2l1.4-3.3h5
	l1.4,3.3c0.1,0.2,0.3,0.3,0.5,0.3c0.2,0,0.3-0.1,0.4-0.2c0.1-0.1,0.1-0.2,0.1-0.4c0-0.1,0-0.2,0-0.2L15.3,2.3c0-0.1-0.1-0.2-0.2-0.3
	C15,2,14.9,1.9,14.8,1.9c-0.1,0-0.2,0-0.3,0.1c-0.1,0.1-0.2,0.2-0.2,0.3L9.8,12.6z M16.8,8.6h-4l2-4.6L16.8,8.6z M21.2,12.8
	c0,0.2,0.1,0.3,0.2,0.4c0.1,0.1,0.2,0.2,0.4,0.2c0.2,0,0.3-0.1,0.4-0.2c0.1-0.1,0.2-0.2,0.2-0.4V4.3l6.1,8.6
	c0.1,0.1,0.1,0.2,0.2,0.3c0.1,0.1,0.2,0.1,0.3,0.1c0.2,0,0.3-0.1,0.4-0.2c0.1-0.1,0.2-0.2,0.2-0.4V2.5c0-0.2-0.1-0.3-0.2-0.4
	c-0.1-0.1-0.2-0.2-0.4-0.2c-0.2,0-0.3,0.1-0.4,0.2c-0.1,0.1-0.2,0.2-0.2,0.4v8.4l-6.1-8.7C22.1,2.1,22.1,2.1,22,2
	c-0.1-0.1-0.2-0.1-0.3-0.1c-0.2,0-0.3,0.1-0.4,0.2c-0.1,0.1-0.2,0.2-0.2,0.4V12.8z M31,12.8c0,0.2,0.1,0.3,0.2,0.4
	c0.1,0.1,0.2,0.2,0.4,0.2h3.1c0.8,0,1.5-0.1,2.2-0.4c0.7-0.3,1.3-0.7,1.8-1.2c0.5-0.5,0.9-1.1,1.2-1.8c0.3-0.7,0.4-1.4,0.4-2.2
	c0-0.8-0.1-1.5-0.4-2.2c-0.3-0.7-0.7-1.3-1.2-1.8c-0.5-0.5-1.1-0.9-1.8-1.2c-0.7-0.3-1.4-0.4-2.2-0.4h-3.1c-0.2,0-0.3,0.1-0.4,0.2
	C31,2.2,31,2.3,31,2.5V12.8z M34.6,3c0.6,0,1.2,0.1,1.8,0.4c0.6,0.2,1,0.6,1.5,1c0.4,0.4,0.7,0.9,1,1.5c0.2,0.6,0.4,1.2,0.4,1.8
	c0,0.6-0.1,1.2-0.4,1.8c-0.2,0.6-0.6,1-1,1.5c-0.4,0.4-0.9,0.7-1.5,1c-0.6,0.2-1.2,0.4-1.8,0.4h-2.5V3H34.6z M41.3,12.8
	c0,0.2,0.1,0.3,0.2,0.4c0.1,0.1,0.2,0.2,0.4,0.2c0.2,0,0.3-0.1,0.4-0.2c0.1-0.1,0.2-0.2,0.2-0.4V2.5c0-0.2-0.1-0.3-0.2-0.4
	C42.1,2,42,1.9,41.8,1.9c-0.2,0-0.3,0.1-0.4,0.2c-0.1,0.1-0.2,0.2-0.2,0.4V12.8z M43.9,12.8c0,0.2,0.1,0.3,0.2,0.4
	c0.1,0.1,0.2,0.2,0.4,0.2h3.1c0.8,0,1.5-0.1,2.2-0.4c0.7-0.3,1.3-0.7,1.8-1.2c0.5-0.5,0.9-1.1,1.2-1.8c0.3-0.7,0.4-1.4,0.4-2.2
	c0-0.8-0.1-1.5-0.4-2.2c-0.3-0.7-0.7-1.3-1.2-1.8c-0.5-0.5-1.1-0.9-1.8-1.2c-0.7-0.3-1.4-0.4-2.2-0.4h-3.1c-0.2,0-0.3,0.1-0.4,0.2
	c-0.1,0.1-0.2,0.2-0.2,0.4V12.8z M47.6,3c0.6,0,1.2,0.1,1.8,0.4c0.6,0.2,1,0.6,1.5,1c0.4,0.4,0.7,0.9,1,1.5C52,6.4,52.1,7,52.1,7.6
	c0,0.6-0.1,1.2-0.4,1.8c-0.2,0.6-0.6,1-1,1.5c-0.4,0.4-0.9,0.7-1.5,1c-0.6,0.2-1.2,0.4-1.8,0.4H45V3H47.6z M53.1,12.6
	c0,0.1-0.1,0.1-0.1,0.2c0,0.1,0.1,0.3,0.2,0.4c0.1,0.1,0.2,0.2,0.4,0.2c0.1,0,0.2,0,0.3-0.1c0.1-0.1,0.2-0.1,0.2-0.2l1.4-3.3h5
	l1.4,3.3c0.1,0.2,0.3,0.3,0.5,0.3c0.2,0,0.3-0.1,0.4-0.2c0.1-0.1,0.1-0.2,0.1-0.4c0-0.1,0-0.2,0-0.2L58.5,2.3c0-0.1-0.1-0.2-0.2-0.3
	C58.2,2,58.1,1.9,58,1.9c-0.1,0-0.2,0-0.3,0.1c-0.1,0.1-0.2,0.2-0.2,0.3L53.1,12.6z M60,8.6h-4L58,4L60,8.6z M64.4,3v9.7
	c0,0.2,0.1,0.3,0.2,0.4c0.1,0.1,0.2,0.2,0.4,0.2c0.2,0,0.3-0.1,0.4-0.2c0.1-0.1,0.2-0.2,0.2-0.4V3h2.5c0.2,0,0.3-0.1,0.4-0.2
	c0.1-0.1,0.2-0.2,0.2-0.4c0-0.2-0.1-0.3-0.2-0.4c-0.1-0.1-0.2-0.2-0.4-0.2h-6.2c-0.2,0-0.3,0.1-0.4,0.2c-0.1,0.1-0.2,0.2-0.2,0.4
	c0,0.2,0.1,0.3,0.2,0.4C61.6,3,61.7,3,61.9,3H64.4z M69.7,12.8c0,0.2,0.1,0.3,0.2,0.4c0.1,0.1,0.2,0.2,0.4,0.2h5.4
	c0.2,0,0.3-0.1,0.4-0.2c0.1-0.1,0.2-0.2,0.2-0.4c0-0.2-0.1-0.3-0.2-0.4c-0.1-0.1-0.2-0.2-0.4-0.2h-4.9V8.1H74c0.2,0,0.3-0.1,0.4-0.2
	c0.1-0.1,0.2-0.2,0.2-0.4c0-0.2-0.1-0.3-0.2-0.4C74.3,7.1,74.2,7,74,7h-3.2V3h4.9C75.8,3,75.9,3,76,2.9c0.1-0.1,0.2-0.2,0.2-0.4
	c0-0.2-0.1-0.3-0.2-0.4c-0.1-0.1-0.2-0.2-0.4-0.2h-5.4c-0.2,0-0.3,0.1-0.4,0.2c-0.1,0.1-0.2,0.2-0.2,0.4V12.8z M77.6,12.8
	c0,0.2,0.1,0.3,0.2,0.4c0.1,0.1,0.2,0.2,0.4,0.2c0.2,0,0.3-0.1,0.4-0.2c0.1-0.1,0.2-0.2,0.2-0.4V4.3l6.1,8.6
	c0.1,0.1,0.1,0.2,0.2,0.3c0.1,0.1,0.2,0.1,0.3,0.1c0.2,0,0.3-0.1,0.4-0.2c0.1-0.1,0.2-0.2,0.2-0.4V2.5c0-0.2-0.1-0.3-0.2-0.4
	c-0.1-0.1-0.2-0.2-0.4-0.2c-0.2,0-0.3,0.1-0.4,0.2c-0.1,0.1-0.2,0.2-0.2,0.4v8.4l-6.1-8.7c-0.1-0.1-0.1-0.2-0.2-0.2
	c-0.1-0.1-0.2-0.1-0.3-0.1c-0.2,0-0.3,0.1-0.4,0.2c-0.1,0.1-0.2,0.2-0.2,0.4V12.8z"/>
<path fill="#999999" d="M16.8,21.6c-0.8-0.7-1.7-1.3-2.8-1.9c-1.1-0.5-2.2-0.8-3.4-0.8c-1.2,0-2.3,0.2-3.3,0.7c-1,0.4-1.9,1-2.7,1.8
	c-0.8,0.8-1.4,1.7-1.8,2.7c-0.4,1-0.7,2.1-0.7,3.3s0.2,2.3,0.7,3.3c0.4,1,1,1.9,1.8,2.7c0.8,0.8,1.7,1.4,2.7,1.8
	c1,0.4,2.1,0.7,3.3,0.7c1.2,0,2.4-0.2,3.5-0.7c1.1-0.5,2-1.1,2.8-2c0.1-0.1,0.2-0.2,0.4-0.3c0.2-0.1,0.3-0.1,0.5-0.1
	c0.3,0,0.5,0.1,0.6,0.3c0.1,0.2,0.2,0.4,0.2,0.7c0,0.4-0.1,0.6-0.3,0.8c-1,1.1-2.1,1.9-3.4,2.5c-1.3,0.6-2.7,0.9-4.3,0.9
	c-1.5,0-2.8-0.3-4.1-0.8c-1.3-0.5-2.4-1.3-3.3-2.2c-0.9-0.9-1.7-2.1-2.2-3.3c-0.6-1.3-0.8-2.6-0.8-4.1c0-1.5,0.3-2.8,0.8-4.1
	c0.6-1.3,1.3-2.4,2.2-3.4c0.9-1,2.1-1.7,3.3-2.3c1.3-0.6,2.6-0.8,4.1-0.8c1.5,0,2.9,0.3,4.1,0.9c1.3,0.6,2.4,1.4,3.4,2.3
	c0.1,0.1,0.2,0.3,0.3,0.4c0.1,0.2,0.1,0.4,0.1,0.5c0,0.3-0.1,0.5-0.3,0.7c-0.2,0.2-0.4,0.2-0.7,0.2C17.3,21.9,17,21.8,16.8,21.6
	 M21.6,36.9c0,0.3,0.1,0.5,0.3,0.7c0.2,0.2,0.4,0.3,0.7,0.3c0.3,0,0.5-0.1,0.7-0.3c0.2-0.2,0.3-0.4,0.3-0.7v-7.7h10.5v7.7
	c0,0.3,0.1,0.5,0.3,0.7c0.2,0.2,0.4,0.3,0.7,0.3c0.3,0,0.5-0.1,0.7-0.3c0.2-0.2,0.3-0.4,0.3-0.7V17.8c0-0.3-0.1-0.5-0.3-0.7
	c-0.2-0.2-0.4-0.3-0.7-0.3c-0.3,0-0.5,0.1-0.7,0.3c-0.2,0.2-0.3,0.4-0.3,0.7v9.3H23.6v-9.3c0-0.3-0.1-0.5-0.3-0.7
	c-0.2-0.2-0.4-0.3-0.7-0.3c-0.3,0-0.5,0.1-0.7,0.3c-0.2,0.2-0.3,0.4-0.3,0.7V36.9z M39,36.9c0,0.3,0.1,0.5,0.3,0.7
	c0.2,0.2,0.4,0.3,0.7,0.3h10.1c0.3,0,0.5-0.1,0.7-0.3c0.2-0.2,0.3-0.4,0.3-0.7c0-0.3-0.1-0.5-0.3-0.7c-0.2-0.2-0.4-0.3-0.7-0.3h-9
	v-7.6h6c0.3,0,0.5-0.1,0.7-0.3c0.2-0.2,0.3-0.4,0.3-0.7c0-0.3-0.1-0.5-0.3-0.7c-0.2-0.2-0.4-0.3-0.7-0.3h-6v-7.4h9
	c0.3,0,0.5-0.1,0.7-0.3c0.2-0.2,0.3-0.4,0.3-0.7c0-0.3-0.1-0.5-0.3-0.7c-0.2-0.2-0.4-0.3-0.7-0.3H40c-0.3,0-0.5,0.1-0.7,0.3
	c-0.2,0.2-0.3,0.4-0.3,0.7V36.9z M67.3,21.6c0.2,0.2,0.5,0.3,0.8,0.3c0.3,0,0.5-0.1,0.7-0.2c0.2-0.2,0.3-0.4,0.3-0.7
	c0-0.2,0-0.4-0.1-0.5c-0.1-0.2-0.2-0.3-0.3-0.4c-1-1-2.1-1.8-3.4-2.3c-1.3-0.6-2.7-0.9-4.2-0.9c-1.5,0-2.8,0.3-4.1,0.8
	c-1.3,0.6-2.4,1.3-3.3,2.3c-0.9,1-1.7,2.1-2.2,3.4c-0.6,1.3-0.8,2.6-0.8,4.1c0,1.5,0.3,2.8,0.8,4.1c0.5,1.3,1.3,2.4,2.2,3.3
	c0.9,1,2.1,1.7,3.3,2.2c1.3,0.6,2.6,0.8,4.1,0.8c1.5,0,2.9-0.3,4.3-0.9c1.3-0.6,2.5-1.4,3.4-2.5c0.2-0.2,0.3-0.5,0.3-0.8
	c0-0.2-0.1-0.5-0.2-0.7c-0.1-0.2-0.4-0.3-0.6-0.3c-0.2,0-0.3,0-0.5,0.1c-0.2,0.1-0.3,0.2-0.4,0.3c-0.8,0.8-1.7,1.5-2.8,2
	c-1.1,0.5-2.2,0.7-3.5,0.7c-1.2,0-2.3-0.2-3.3-0.7c-1-0.4-1.9-1-2.7-1.8c-0.8-0.8-1.4-1.7-1.8-2.7c-0.4-1-0.7-2.1-0.7-3.3
	s0.2-2.3,0.7-3.3c0.4-1,1-1.9,1.8-2.7c0.8-0.8,1.7-1.4,2.7-1.8c1-0.4,2.1-0.7,3.3-0.7c1.2,0,2.3,0.3,3.4,0.8
	C65.5,20.3,66.5,20.9,67.3,21.6 M72,36.9c0,0.3,0.1,0.5,0.3,0.7c0.2,0.2,0.4,0.3,0.7,0.3c0.3,0,0.5-0.1,0.7-0.3
	c0.2-0.2,0.3-0.4,0.3-0.7v-7.5l3.2-2.9l6.9,11c0.2,0.3,0.5,0.5,0.9,0.5c0.3,0,0.6-0.1,0.7-0.3c0.2-0.2,0.3-0.5,0.3-0.7
	c0-0.2-0.1-0.4-0.2-0.5L78.7,25l7.1-6.5c0.2-0.2,0.3-0.4,0.3-0.7c0-0.3-0.1-0.5-0.3-0.7c-0.2-0.2-0.4-0.3-0.7-0.3
	c-0.3,0-0.5,0.1-0.7,0.3L74,26.6v-8.8c0-0.3-0.1-0.5-0.3-0.7c-0.2-0.2-0.4-0.3-0.7-0.3c-0.3,0-0.5,0.1-0.7,0.3
	c-0.2,0.2-0.3,0.4-0.3,0.7V36.9z"/>
<path fill="#FF6C36" d="M123.9,1.5H97.7c-3,0-5.5,2.5-5.5,5.5v26.1c0,3,2.5,5.5,5.5,5.5h26.2c3,0,5.5-2.4,5.5-5.4V7
	C129.3,4,126.9,1.5,123.9,1.5 M126.6,32.5c0,1.9-1.5,3.3-3.3,3.3H98.3c-1.9,0-3.3-1.5-3.3-3.3V7.6c0-1.9,1.5-3.3,3.3-3.3h24.9
	c1.9,0,3.3,1.5,3.3,3.3V32.5z M118.2,13c-1.7-1.8-3.9-2.9-6.3-3.2l0.2-3.3c3.3,0.3,6.3,1.8,8.5,4.2c2.3,2.4,3.6,5.5,3.8,8.8h-3.3
	C121,17.1,120,14.8,118.2,13 M110.6,6.3l-0.1,3.3c-2.7,0-5.3,1.1-7.2,2.9l-2.3-2.4C103.5,7.7,106.9,6.3,110.6,6.3
	C110.6,6.3,110.6,6.3,110.6,6.3 M117.9,27.9c0.9-0.7,1.5-1.7,2-2.6l3.2,1c-0.7,1.5-1.7,2.9-2.9,4L117.9,27.9z M123.6,24.9l-3.1-1
	c0.4-0.9,0.6-1.9,0.7-3h3.3C124.4,22.3,124.2,23.7,123.6,24.9 M115.4,17.4l2.4-2.3c1,1.3,1.6,2.9,1.7,4.5h-3.3
	C116.1,18.8,115.8,18,115.4,17.4 M116.2,21h3.3c-0.1,2.2-1.1,4.3-2.7,5.8l-2.3-2.4C115.4,23.5,116,22.3,116.2,21 M104.3,13.8
	c1.6-1.6,3.7-2.5,6.1-2.5l-0.2,3.3c-1.4,0.1-2.6,0.6-3.6,1.5L104.3,13.8z M114.5,16.2c-0.8-0.7-1.8-1.3-2.9-1.5l0.2-3.3
	c1.9,0.3,3.6,1.1,5,2.5L114.5,16.2z"/>
</svg>
